<svg width="1500" height="1500" viewBox="0 0 1500 1500" fill="none" xmlns="http://www.w3.org/2000/svg">
<rect width="1500" height="1500" fill="white"/>
<path d="M756.5 578C754.877 441.902 904.719 218.878 1148.07 122.922" stroke="black" stroke-width="25"/>
<path d="M345 122C548.233 191.622 759.566 432.056 755.5 580" stroke="black" stroke-width="25"/>
<line x1="755.509" y1="578.043" x2="752.5" y2="1446.04" stroke="black" stroke-width="25"/>
<path d="M165.517 880.039C157.183 880.039 148.85 880.038 140.517 880.038C140.513 910.768 144.279 941.346 151.075 971.135C222.207 1234.43 466.669 1450.17 745.009 1454.98C1017 1432.57 1272.98 1238.91 1344.13 971.121C1350.89 941.303 1354.51 910.71 1354.5 880C1346.17 880 1337.83 880 1329.5 880C1329.5 908.762 1326.12 937.48 1319.75 965.599C1254 1218.66 1002.07 1409.95 744.024 1430C483.531 1427.18 241.28 1215.3 175.449 965.577C169.03 937.441 165.513 908.732 165.517 880.039Z" fill="black"/>
<path d="M1349.5 892C992 892 752.5 1213.5 752.5 1437.5" stroke="black" stroke-width="25"/>
<path d="M749.927 1445.39C749.927 1078.89 382 892 145.5 892" stroke="black" stroke-width="25"/>
<path d="M750 80C747.823 76.2202 647.267 185.873 589 277" stroke="black" stroke-width="25"/>
<path d="M747 78.5C761.343 84.3537 860.939 193.781 910.5 278" stroke="black" stroke-width="25"/>
<path d="M754.5 932.5C1143.52 808.5 1281.5 544 1143.52 129.773" stroke="black" stroke-width="25"/>
<path d="M750.5 930C352 837.5 233.976 492.773 349.5 118" stroke="black" stroke-width="25"/>
</svg>
